<svg width="744.000000pt" height="312.000000pt" viewBox="0 0 744.000000 312.000000" >
  <g transform="translate(0.000000,312.000000) scale(0.100000,-0.100000)" fill="#11111e" stroke="none">
    <path d="M0 1560 c0 -1560 0 -1560 3720 -1560 3720 0 3720 0 3720 1560 0 1560
0 1560 -3720 1560 -3720 0 -3720 0 -3720 -1560z m1376 756 c115 -53 154 -165
128 -360 -11 -74 -21 -54 -28 57 -16 258 -138 333 -361 223 -451 -223 -695
-1109 -333 -1207 212 -57 473 132 744 538 135 201 180 238 229 188 71 -70
-102 -366 -371 -631 -360 -357 -803 -328 -885 57 -109 509 508 1307 877 1135z
m761 -1078 c-1 -205 -2 -40 -2 367 0 407 1 575 2 373 2 -201 2 -534 0 -740z
m1080 1087 c71 -21 136 -74 167 -137 62 -124 2 -174 -76 -63 -39 55 -60 57
-131 12 -222 -142 -337 -472 -298 -855 25 -249 83 -291 245 -180 145 100 182
108 257 59 99 -66 107 -106 31 -169 -233 -194 -522 -156 -682 89 -295 454 64
1370 487 1244z m3115 -258 c23 -21 25 -31 24 -88 -2 -98 -44 -89 -138 30 -7 8
-7 15 -1 20 5 3 13 18 17 34 9 36 61 38 98 4z m-1304 -201 c58 -30 66 -50 63
-141 -4 -129 6 -146 57 -95 73 72 188 8 267 -150 61 -122 75 -88 75 191 0 134
2 158 16 163 51 20 116 -14 134 -70 32 -96 -5 -534 -48 -577 -51 -50 -148 41
-262 246 -58 102 -63 101 -146 -33 -113 -182 -119 -186 -222 -138 -116 54
-129 238 -36 510 35 104 52 120 102 94z m1002 -24 c54 -26 51 -52 -11 -103
-150 -124 -153 -142 -53 -251 94 -103 101 -119 74 -191 -47 -125 -144 -195
-210 -150 -101 66 -101 72 -14 192 70 96 69 104 -17 198 -107 116 -113 152
-38 237 80 91 172 114 269 68z m652 17 c96 -26 105 -67 28 -124 -145 -107
-150 -158 -25 -275 75 -71 80 -104 29 -201 -75 -142 -148 -163 -246 -71 -38
35 -36 44 32 138 78 108 78 119 -6 209 -114 122 -117 163 -24 256 65 65 138
89 212 68z m-2062 -18 c187 -71 237 -252 131 -475 -122 -257 -423 -261 -498
-6 -36 122 49 390 124 390 8 0 40 25 71 55 65 63 88 68 172 36z m-991 -12 c42
-15 51 -35 51 -118 0 -127 13 -130 122 -24 124 122 175 139 297 98 111 -36
113 -82 5 -109 -181 -46 -266 -146 -328 -389 -30 -121 -30 -120 -77 -114 -115
15 -161 141 -163 447 -1 201 15 236 93 209z m2684 -56 c19 -17 19 -26 12 -183
-4 -91 -9 -205 -11 -255 -4 -117 -29 -136 -112 -84 -91 57 -111 309 -37 474
37 84 88 101 148 48z" />
    <path d="M4552 1648 c-22 -29 -56 -78 -75 -109 -20 -31 -43 -59 -52 -62 -21
-9 -23 -177 -2 -177 86 0 193 166 204 318 8 104 -12 112 -75 30z" />
  </g>
  <g transform="translate(0.000000,312.000000) scale(0.100000,-0.100000)" fill="#fefefe" stroke="none">
    <path d="M3012 2324 c-264 -132 -452 -596 -392 -970 30 -187 150 -404 224
-404 11 0 31 -14 45 -31 36 -43 231 -84 231 -49 0 6 -44 61 -97 122 -110 127
-119 148 -134 294 -38 373 78 700 298 841 65 41 76 41 103 -2 84 -136 176 -71
104 73 -65 130 -251 191 -382 126z" />
    <path d="M6220 2059 c-20 -73 34 -151 107 -153 51 -1 64 126 16 170 -47 43
-109 35 -123 -17z" />
    <path d="M4957 1872 c-45 -49 -100 -281 -101 -423 -1 -139 47 -201 176 -224
47 -9 67 11 162 165 81 131 72 129 126 33 95 -171 149 -233 223 -255 79 -24
105 58 114 368 8 263 -11 314 -114 314 -64 0 -63 4 -64 -179 -1 -255 -6 -273
-52 -184 -84 164 -210 231 -288 154 -37 -38 -44 -18 -36 99 5 75 4 79 -22 103
-53 50 -96 60 -124 29z" />
    <path d="M4513 1871 c-13 -3 -47 -30 -77 -58 -30 -29 -61 -53 -69 -53 -55 0
-136 -192 -137 -326 -1 -201 200 -335 374 -250 167 82 271 389 182 540 -52 89
-196 166 -273 147z m104 -253 c-11 -131 -71 -236 -166 -291 -31 -18 -31 -18
-31 58 0 59 3 77 15 82 9 3 32 31 52 62 108 171 139 192 130 89z" />
    <path d="M5885 1871 c-99 -24 -185 -120 -185 -205 0 -37 17 -63 102 -153 71
-75 71 -72 -2 -173 -82 -114 -82 -116 -26 -167 106 -95 214 -51 275 113 33 87
24 111 -85 226 -78 81 -74 105 31 187 87 69 103 93 81 126 -26 40 -121 63
-191 46z" />
    <path d="M6560 1865 c-59 -18 -123 -73 -149 -128 -37 -77 -27 -105 77 -217 76
-81 76 -81 -3 -191 -75 -106 -74 -98 -35 -142 99 -113 200 -86 281 74 46 91
37 140 -36 209 -120 113 -116 151 26 256 121 89 4 190 -161 139z" />
    <path d="M3543 1813 c-20 -49 -32 -263 -14 -263 7 0 27 11 44 24 32 23 32 23
162 10 230 -23 237 -19 154 76 -63 73 -61 73 -127 8 -64 -64 -72 -58 -72 50 0
86 -9 106 -51 121 -58 20 -78 15 -96 -26z" />
    <path d="M3947 1810 c-75 -14 -77 -30 -12 -107 32 -37 63 -68 69 -68 62 3 179
65 121 65 -20 0 -83 57 -101 91 -15 31 -17 31 -77 19z" />
    <path d="M6201 1804 c-87 -62 -125 -368 -60 -496 37 -72 117 -115 161 -86 40
27 48 540 8 569 -38 27 -81 32 -109 13z" />
    <path d="M3530 1495 c0 -105 22 -189 61 -237 22 -26 39 -54 39 -63 0 -49 120
-45 136 5 29 89 28 112 -3 106 -26 -6 -35 2 -123 109 -103 126 -110 131 -110
80z" />
    <path d="M3650 1517 c0 -18 129 -157 145 -157 6 0 26 32 43 72 36 80 33 88
-29 88 -20 0 -64 3 -98 6 -52 6 -61 4 -61 -9z" />
    <path d="M3230 1187 c-53 -25 -169 -113 -170 -128 -1 -60 42 -49 144 39 102
87 114 130 26 89z" />
    <path d="M3229 1059 c-98 -83 -101 -91 -54 -147 43 -49 55 -49 152 4 62 34
163 123 163 143 0 16 -21 13 -43 -6 -18 -17 -21 -16 -61 30 -53 61 -57 60
-157 -24z" />
  </g>
  <g transform="translate(0.000000,312.000000) scale(0.100000,-0.100000)" fill="#ed8b00" stroke="none">
    <path d="M1154 2336 c-263 -83 -546 -430 -644 -791 -177 -653 385 -926 886
-430 276 273 447 573 369 650 -57 58 -111 17 -249 -188 -304 -457 -622 -653
-802 -495 -246 216 16 949 410 1144 215 106 326 34 342 -223 12 -184 54 -130
54 70 0 216 -156 329 -366 263z" />
    <path d="M2120 1605 c0 -656 2 -745 15 -745 13 0 15 89 15 745 0 656 -2 745
-15 745 -13 0 -15 -89 -15 -745z" />
  </g>
  <g transform="translate(0.000000,312.000000) scale(0.100000,-0.100000)" fill="#f4f4f4" stroke="none">
    <path d="M2890 2235 c-13 -14 -21 -27 -18 -30 2 -3 17 9 33 25 16 17 24 30 19
30 -6 0 -21 -11 -34 -25z" />
    <path d="M6477 1819 c-20 -17 -37 -35 -37 -41 0 -5 12 2 28 16 15 14 36 32 47
40 11 9 15 16 10 16 -6 0 -27 -14 -48 -31z" />
    <path d="M4012 1785 c24 -41 83 -95 104 -95 9 0 12 -5 8 -11 -5 -9 1 -10 22
-5 113 29 38 118 -118 139 -36 5 -36 5 -16 -28z" />
    <path d="M3900 1793 c-90 -59 -91 -68 -25 -139 61 -66 61 -66 98 -44 42 25 45
16 -36 113 -27 31 -45 57 -40 57 13 0 50 29 38 30 -6 0 -22 -7 -35 -17z" />
    <path d="M3565 1586 c-16 -13 -33 -22 -37 -19 -5 2 -8 -5 -8 -16 0 -11 5 -23
10 -26 6 -4 8 -11 4 -16 -3 -5 -1 -8 4 -7 5 2 48 -44 97 -102 96 -115 110
-127 129 -111 7 6 15 8 19 5 3 -3 10 11 16 33 13 45 14 56 3 49 -7 -4 -98 84
-131 127 -14 18 142 16 178 -3 13 -7 79 65 69 75 -2 2 -57 8 -123 14 -66 6
-138 13 -160 16 -32 4 -46 0 -70 -19z" />
    <path d="M5750 1575 c0 -6 18 -29 40 -50 22 -21 40 -35 40 -30 -1 14 -80 92
-80 80z" />
    <path d="M4515 1380 c-16 -17 -24 -30 -19 -30 13 0 59 48 52 55 -2 3 -17 -9
-33 -25z" />
    <path d="M3555 1298 c16 -51 39 -89 65 -108 32 -23 45 -26 33 -7 -4 6 -8 17
-9 24 -2 12 -83 113 -91 113 -2 0 -1 -10 2 -22z" />
    <path d="M4290 1264 c0 -13 48 -59 55 -52 3 2 -9 17 -25 33 -17 16 -30 24 -30
19z" />
    <path d="M3273 1189 c6 -30 -175 -164 -192 -142 -15 18 -25 20 -65 16 -36 -4
-51 -2 -66 12 -44 40 -15 -2 67 -96 67 -78 83 -103 72 -109 -16 -11 6 -11 89
-4 52 5 52 5 12 51 -22 26 -39 50 -38 53 3 6 116 105 161 139 16 13 23 8 72
-45 55 -59 55 -59 82 -32 32 33 4 86 -75 138 -46 30 -125 43 -119 19z" />
    <path d="M2835 961 c-17 -7 -15 -11 23 -36 50 -33 62 -28 32 14 -23 33 -24 34
-55 22z" />
  </g>
  <g transform="translate(0.000000,312.000000) scale(0.100000,-0.100000)" fill="#20202d" stroke="none">
    <path d="M3080 2055 c-13 -14 -21 -27 -18 -30 2 -3 17 9 33 25 16 17 24 30 19
30 -6 0 -21 -11 -34 -25z" />
    <path d="M6505 1500 c16 -16 31 -28 33 -25 7 7 -39 55 -52 55 -5 0 3 -13 19
-30z" />
    <path d="M4689 1263 c-8 -10 -29 -31 -47 -46 -19 -15 -29 -27 -24 -27 15 0 98
77 91 85 -4 3 -13 -2 -20 -12z" />
    <path d="M3570 1253 c0 -16 67 -83 83 -83 7 0 4 5 -5 10 -9 6 -31 27 -47 47
-17 21 -31 32 -31 26z" />
    <path d="M3435 1010 c-16 -17 -24 -30 -19 -30 13 0 59 48 52 55 -2 3 -17 -9
-33 -25z" />
  </g>
  <g transform="translate(0.000000,312.000000) scale(0.100000,-0.100000)" fill="#898990" stroke="none">
    <path d="M5482 1733 c1 -110 5 -97 10 35 2 39 0 72 -4 72 -5 0 -7 -48 -6 -107z" />
    <path d="M3523 1640 c0 -36 2 -50 4 -32 2 17 2 47 0 65 -2 17 -4 3 -4 -33z" />
    <path d="M4413 1365 c0 -33 2 -45 4 -27 2 18 2 45 0 60 -2 15 -4 0 -4 -33z" />
  </g>
  <g transform="translate(0.000000,312.000000) scale(0.100000,-0.100000)" fill="#c4c4c7" stroke="none">
    <path d="M5654 1620 c0 -52 1 -74 3 -47 2 26 2 68 0 95 -2 26 -3 4 -3 -48z" />
  </g>
  <g transform="translate(0.000000,312.000000) scale(0.100000,-0.100000)" fill="#4b4b56" stroke="none" />
  <g transform="translate(0.000000,312.000000) scale(0.100000,-0.100000)" fill="#dc8102" stroke="none">
    <path d="M1448 2268 c17 -18 38 -50 47 -70 19 -48 27 -49 13 -3 -12 38 -63
105 -81 105 -6 0 3 -15 21 -32z" />
    <path d="M1344 2261 c21 -11 44 -26 52 -32 8 -7 17 -9 20 -7 7 7 -54 44 -86
52 -15 4 -10 -1 14 -13z" />
    <path d="M791 1922 c-43 -67 -39 -79 5 -14 20 30 34 56 31 58 -2 3 -19 -17
-36 -44z" />
    <path d="M676 1919 c-15 -22 -26 -43 -23 -45 2 -2 16 14 31 37 15 22 26 43 23
45 -2 2 -16 -14 -31 -37z" />
    <path d="M610 1811 c-26 -51 -41 -91 -35 -91 8 0 67 122 61 127 -2 3 -14 -14
-26 -36z" />
    <path d="M720 1800 c-12 -23 -19 -44 -16 -47 2 -3 14 14 26 37 12 23 19 44 16
47 -2 3 -14 -14 -26 -37z" />
    <path d="M1486 1529 c-26 -39 -46 -73 -43 -75 2 -2 25 28 51 67 26 39 46 73
43 75 -2 2 -25 -28 -51 -67z" />
    <path d="M1676 1474 c-21 -31 -36 -58 -33 -60 2 -2 21 21 41 52 21 31 36 58
33 60 -2 2 -21 -21 -41 -52z" />
    <path d="M1400 1135 c-24 -25 -40 -45 -34 -45 13 0 89 78 83 85 -3 2 -25 -16
-49 -40z" />
    <path d="M660 1132 c0 -6 16 -27 35 -47 20 -19 41 -35 47 -35 6 0 -1 9 -15 20
-15 12 -35 32 -47 47 -11 14 -20 21 -20 15z" />
    <path d="M517 1083 c11 -29 45 -84 49 -80 3 2 -7 25 -22 50 -26 48 -39 61 -27
30z" />
  </g>
  <g transform="translate(0.000000,312.000000) scale(0.100000,-0.100000)" fill="#3a3a46" stroke="none" />
  <g transform="translate(0.000000,312.000000) scale(0.100000,-0.100000)" fill="#2e2e3b" stroke="none" />
  <g transform="translate(0.000000,312.000000) scale(0.100000,-0.100000)" fill="#6c6c75" stroke="none" />
  <g transform="translate(0.000000,312.000000) scale(0.100000,-0.100000)" fill="#d4d4d6" stroke="none" />
  <g transform="translate(0.000000,312.000000) scale(0.100000,-0.100000)" fill="#e0e0e2" stroke="none" />
  <g transform="translate(0.000000,312.000000) scale(0.100000,-0.100000)" fill="#99999f" stroke="none" />
  <g transform="translate(0.000000,312.000000) scale(0.100000,-0.100000)" fill="#7b4c10" stroke="none">
    <path d="M613 1350 c0 -36 2 -50 4 -32 2 17 2 47 0 65 -2 17 -4 3 -4 -33z" />
  </g>
  <g transform="translate(0.000000,312.000000) scale(0.100000,-0.100000)" fill="#a6a6ab" stroke="none" />
  <g transform="translate(0.000000,312.000000) scale(0.100000,-0.100000)" fill="#b26a08" stroke="none" />
  <g transform="translate(0.000000,312.000000) scale(0.100000,-0.100000)" fill="#1d191f" stroke="none" />
  <g transform="translate(0.000000,312.000000) scale(0.100000,-0.100000)" fill="#b5b5b9" stroke="none" />
  <g transform="translate(0.000000,312.000000) scale(0.100000,-0.100000)" fill="#5a5a64" stroke="none" />
  <g transform="translate(0.000000,312.000000) scale(0.100000,-0.100000)" fill="#7e7e86" stroke="none" />
  <g transform="translate(0.000000,312.000000) scale(0.100000,-0.100000)" fill="#955a0c" stroke="none" />
  <g transform="translate(0.000000,312.000000) scale(0.100000,-0.100000)" fill="#e9e9ea" stroke="none" />
  <g transform="translate(0.000000,312.000000) scale(0.100000,-0.100000)" fill="#533516" stroke="none" />
  <g transform="translate(0.000000,312.000000) scale(0.100000,-0.100000)" fill="#3b281a" stroke="none" />
  <g transform="translate(0.000000,312.000000) scale(0.100000,-0.100000)" fill="#2d201c" stroke="none" />
  <g transform="translate(0.000000,312.000000) scale(0.100000,-0.100000)" fill="#c47406" stroke="none" />
  <g transform="translate(0.000000,312.000000) scale(0.100000,-0.100000)" fill="#643f14" stroke="none" />
  <g transform="translate(0.000000,312.000000) scale(0.100000,-0.100000)" fill="#141422" stroke="none" />
</svg>